<svg xmlns="http://www.w3.org/2000/svg" viewBox="0 0 5.66 6.13"><defs><style>.cls-1{fill:#30383b;fill-rule:evenodd;}</style></defs><title>Fichier 1</title><g id="Calque_2" data-name="Calque 2"><g id="_ÎÓÈ_1" data-name="—ÎÓÈ 1"><path class="cls-1" d="M0,5.7Q0,4.38,0,3.06T0,.43H0A.43.43,0,0,1,.43,0H4.92L5,0H5L5.64.7a.07.07,0,0,1,0,.05V5.7a.43.43,0,0,1-.43.43H.43A.43.43,0,0,1,.13,6h0A.43.43,0,0,1,0,5.7ZM4.86,2.84H.8V5.37H4.86V2.84ZM.73,2.7a.07.07,0,0,0-.07.07V5.44a.07.07,0,0,0,.07.07H4.93A.07.07,0,0,0,5,5.44V2.77a.07.07,0,0,0-.07-.07ZM4.13.15V1.81a.07.07,0,0,1-.07.07H3.2a.07.07,0,0,1-.07-.07V.14H1.63V2.06H4.47V.15Zm-.25,0h-.6V1.74H4V.15Zm.73,0v2a.07.07,0,0,1-.07.07h-3a.07.07,0,0,1-.07-.07v-2h-1A.29.29,0,0,0,.15.43h0q0,1.32,0,2.63t0,2.63h0a.29.29,0,0,0,.08.2h0A.29.29,0,0,0,.43,6H5.23a.29.29,0,0,0,.29-.29V.78L4.89.15Z"/></g></g></svg>
