<?xml version="1.0" encoding="utf-8"?>
<!-- Generated by IcoMoon.io -->
<!DOCTYPE svg PUBLIC "-//W3C//DTD SVG 1.1//EN" "http://www.w3.org/Graphics/SVG/1.1/DTD/svg11.dtd">
<svg version="1.1" xmlns="http://www.w3.org/2000/svg" xmlns:xlink="http://www.w3.org/1999/xlink" width="267" height="384" viewBox="0 0 267 384">
<g id="icomoon-ignore">
</g>
<path d="M17.060 255.088l-0.105 0.238 0.152 0.059 20.005 128.626 107.44-74.057 94.768-220.168c10.349-24.043-1.288-52.16-25.992-62.793l-38.030-16.37c-24.705-10.635-53.124 0.238-63.472 24.281l-94.767 220.183zM52.225 244.66c8.43 3.624 13.494 11.323 13.279 18.846l2.141 0.915c5.282-5.336 14.277-6.983 22.613-3.395s13.319 11.253 13.076 18.761l2.129 0.912c5.282-5.336 14.273-6.986 22.61-3.398 7.567 3.261 12.394 9.883 13.050 16.687l-4.179 9.724-64.119 44.201-34.038-14.654-11.968-76.936 4.219-9.816c5.431-4.131 13.579-5.127 21.189-1.846z"></path>
</svg>
